<svg width="32" height="32" viewBox="0 0 100 100" xmlns="http://www.w3.org/2000/svg">
  <defs>
    <linearGradient id="grad1" x1="0%" y1="0%" x2="100%" y2="100%">
      <stop offset="0%" style="stop-color:rgb(59,130,246);stop-opacity:1" />
      <stop offset="100%" style="stop-color:rgb(37,99,235);stop-opacity:1" />
    </linearGradient>
  </defs>
  <path fill="url(#grad1)" d="M50,5 C25.1,5 5,25.1 5,50 C5,74.9 25.1,95 50,95 C74.9,95 95,74.9 95,50 C95,25.1 74.9,5 50,5 Z M50,87 C29.5,87 13,70.5 13,50 C13,29.5 29.5,13 50,13 C70.5,13 87,29.5 87,50 C87,70.5 70.5,87 50,87 Z"/>
  <path fill="white" d="M30,50 C30,45 35,40 40,40 C45,40 50,45 50,50 C50,55 45,60 40,60 C35,60 30,55 30,50 Z"/>
  <path fill="white" d="M50,30 C55,30 60,35 60,40 C60,45 55,50 50,50 C45,50 40,45 40,40 C40,35 45,30 50,30 Z"/>
  <path fill="white" d="M50,50 C55,50 60,55 60,60 C60,65 55,70 50,70 C45,70 40,65 40,60 C40,55 45,50 50,50 Z"/>
</svg>